# AST/ASF file generated using VICON BodyLanguage
# -----------------------------------------------
:version 1.10
:name VICON
:units
  mass 1.0
  length 0.45
  angle deg
:documentation
   .ast/.asf automatically generated from VICON data using
   VICON BodyBuilder and BodyLanguage model FoxedUp or BRILLIANT.MOD
:root
   order TX TY TZ RX RY RZ
   axis XYZ
   position 0 0 0  
   orientation 0 0 0 
:bonedata
  begin
     id 1 
     name lhipjoint
     direction 0.624716 -0.669793 0.401383 
     length 2.38238 
     axis 0 0 0  XYZ
  end
  begin
     id 2 
     name lfemur
     direction 0.34202 -0.939693 0  
     length 6.4574  
     axis 0 0 20  XYZ
    dof rx ry rz
    limits (-160.0 20.0)
           (-70.0 70.0)
           (-60.0 70.0)
  end
  begin
     id 3 
     name ltibia
     direction 0.34202 -0.939693 0   
     length 7.68739   
     axis 0 0 20   XYZ
    dof rx
    limits (-10.0 170.0)
  end
  begin
     id 4 
     name lfoot
     direction 0.0681309 -0.187188 0.979959   
     length 2.46615   
     axis -90 7.62852e-016 20   XYZ
    dof rx rz
    limits (-45.0 90.0)
           (-70.0 20.0)
  end
  begin
     id 5 
     name ltoes
     direction 1.53566e-011 -4.21819e-011 1   
     length 1.2376   
     axis -90 7.62852e-016 20   XYZ
    dof rx
    limits (-90.0 20.0)
  end
  begin
     id 6 
     name rhipjoint
     direction -0.644473 -0.655875 0.393043   
     length 2.43293  
     axis 0 0 0  XYZ 
  end
  begin
     id 7 
     name rfemur
     direction -0.34202 -0.939693 0   
     length 6.7025   
     axis 0 0 -20   XYZ
    dof rx ry rz
    limits (-160.0 20.0)
           (-70.0 70.0)
           (-70.0 60.0)
  end
  begin
     id 8 
     name rtibia
     direction -0.34202 -0.939693 0   
     length 7.80547   
     axis 0 0 -20   XYZ
    dof rx
    limits (-10.0 170.0)
 end
 begin
     id 9 
     name rfoot
     direction -0.0756734 -0.207911 0.975216   
     length 2.40315  
     axis -90 -7.62852e-016 -20   XYZ
    dof rx rz
    limits (-45.0 90.0)
           (-20.0 70.0)
  end
  begin
     id 10 
     name rtoes
     direction -1.5353e-011 -4.21879e-011 1   
     length 1.20477   
     axis -90 -7.62852e-016 -20   XYZ
    dof rx
    limits (-90.0 20.0)
  end
  begin
     id 11 
     name lowerback
     direction 0.0160353 0.987463 -0.157037   
     length 2.18572   
     axis 0 0 0   XYZ
    dof rx ry rz
    limits (-20.0 45.0)
           (-30.0 30.0)
           (-30.0 30.0)
  end
  begin
     id 12 
     name upperback
     direction -0.00499661 0.999756 0.0215076   
     length 2.18016   
     axis 0 0 0   XYZ
    dof rx ry rz
    limits (-20.0 45.0)
           (-30.0 30.0)
           (-30.0 30.0)
  end
  begin
     id 13 
     name thorax
     direction -0.00921346 0.995333 0.0960619   
     length 2.24923   
     axis 0 0 0   XYZ
    dof rx ry rz
    limits (-20.0 45.0)
           (-30.0 30.0)
           (-30.0 30.0)
  end
  begin
     id 14 
     name lowerneck
     direction 0.0274184 0.991181 0.12965   
     length 1.70911   
     axis 0 0 0   XYZ
    dof rx ry rz
    limits (-20.0 45.0)
           (-30.0 30.0)
           (-30.0 30.0)
  end
  begin
     id 15 
     name upperneck
     direction 0.0015627 0.999959 -0.00893559   
     length 1.69312   
     axis 0 0 0   XYZ
    dof rx ry rz
    limits (-20.0 45.0)
           (-30.0 30.0)
           (-30.0 30.0)
  end
  begin
     id 16
     name head
     direction -0.00230242 0.999856 -0.0168327  
     length 1.80241  
     axis 0 0 0   XYZ
    dof rx ry rz
    limits (-20.0 45.0)
           (-30.0 30.0)
           (-30.0 30.0)
  end
  begin
     id 17 
     name lclavicle
     direction 0.955523 0.290741 -0.0494489  
     length 3.84275  
     axis 0 0 0   XYZ
    dof ry rz
    limits (-20.0 10.0)
           (0.0 20.0)
  end
  begin
     id 18 
     name lhumerus
     direction 1 -4.48967e-011 -3.18382e-028   
     length 5.17714   
     axis 180 -30 -90   XYZ
    dof rx ry rz
    limits (-60.0 90.0)
           (-90.0 90.0)
           (-90.0 90.0)
  end
  begin
     id 19
     name lradius
     direction 1 -4.48968e-011 -2.22911e-027   
     length 3.43679   
     axis 180 -30 -90   XYZ
    dof rx
    limits (-10.0 170.0)
  end
  begin
     id 20
     name lwrist
     direction 1 -4.48951e-011 -6.32245e-027   
     length 1.7184   
     axis 3.57107e-015 90 90   XYZ
    dof ry
    limits (-180.0 0.0)
 end
  begin
     id 21 
     name lhand
     direction 1 -4.48924e-011 -1.26431e-026   
     length 0.573117   
     axis 8.06912e-015 90 90   XYZ
    dof rx rz
    limits (-90.0 90.0)
           (-45.0 45.0)
  end
  begin
     id 22 
     name lfingers
     direction 1 -4.49001e-011 -2.52965e-026   
     length 0.462062   
     axis 1.61381e-014 90 90   XYZ
    dof rx
    limits (0.0 90.0)
  end
  begin
     id 23
     name lthumb
     direction 0.707107 -6.35008e-011 0.707107   
     length 0.663431   
     axis -90 45 -1.62303e-014   XYZ
    dof rx rz
    limits (-45.0 45.0)
           (-45.0 45.0)
  end
  begin
     id 24 
     name rclavicle
     direction -0.963917 0.256881 -0.0698287   
     length 3.73057  
     axis 0 0 0   XYZ 
    dof ry rz
    limits (-10.0 20.0)
           (-20.0 0.0)
  end
  begin
     id 25 
     name rhumerus
     direction -1 -4.48962e-011 -2.73982e-027  
     length 5.23908   
     axis 180 30 90   XYZ
    dof rx ry rz
    limits (-90.0 60.0)
           (-90.0 90.0)
           (-90.0 90.0)
  end
  begin
     id 26 
     name rradius
     direction -1 -4.48968e-011 -4.33218e-027   
     length 3.46485   
     axis 180 30 90   XYZ
    dof rx
    limits (-10.0 170.0)
  end
  begin
     id 27 
     name rwrist
     direction -1 -4.48989e-011 -6.32372e-027   
     length 1.73243   
     axis 3.57107e-015 -90 -90   XYZ
    dof ry
    limits (-180.0 0.0)
  end
  begin
     id 28
     name rhand
     direction -1 -4.48948e-011 -1.26448e-026   
     length 0.608752   
     axis 8.06912e-015 -90 -90   XYZ
    dof rx rz
    limits (-90.0 90.0)
           (-45.0 45.0)
  end
  begin
     id 29
     name rfingers
     direction -1 -4.48962e-011 -2.52913e-026   
     length 0.490792   
     axis 1.61381e-014 -90 -90   XYZ
    dof rx
    limits (0.0 90.0)
  end
  begin
     id 30
     name rthumb
     direction -0.707107 -6.34878e-011 0.707107   
     length 0.704682   
     axis -90 -45 1.62303e-014   XYZ
    dof rx rz
    limits (-45.0 45.0)
           (-45.0 45.0)
  end
:hierarchy
  begin
    root lhipjoint rhipjoint lowerback
    lhipjoint lfemur
    lfemur ltibia
    ltibia lfoot
    lfoot ltoes
    rhipjoint rfemur
    rfemur rtibia
    rtibia rfoot
    rfoot rtoes
    lowerback upperback
    upperback thorax
    thorax lowerneck lclavicle rclavicle
    lowerneck upperneck
    upperneck head
    lclavicle lhumerus
    lhumerus lradius
    lradius lwrist
    lwrist lhand lthumb
    lhand lfingers
    rclavicle rhumerus
    rhumerus rradius
    rradius rwrist
    rwrist rhand rthumb
    rhand rfingers
  end

#!OML:ASF G:\JayActor3\Patient Classification 1\Patient 1\Session 6\male.ASF
:FULLY-SPECIFIED
:DEGREES
75
root 50.4882 15.9937 19.0919 -177.107 -44.5739 -179.01
lowerback -6.8523 -0.460673 1.7199
upperback 1.75149 -0.767685 -0.0603078
thorax 5.64691 -0.319294 -1.11831
lowerneck -4.55646 -2.61328 0.582304
upperneck 6.35944 -4.37428 8.14907
head 3.05705 -1.98189 2.38965
rclavicle 1.34601e-013 -1.98785e-015
rhumerus -31.8195 -10.2712 -83.973
rradius 30.2479
rwrist -2.52148
rhand -24.2776 -7.67714
rfingers 7.12502
rthumb 2.2093 -37.6454
lclavicle 1.34601e-013 -1.98785e-015
lhumerus -31.268 9.26993 82.8248
lradius 24.8877
lwrist 22.0262
lhand -17.1485 8.08743
lfingers 7.12502
lthumb 9.09208 37.8715
rfemur -17.6336 3.19316 23.6928
rtibia 39.017
rfoot -26.4324 -13.5028
rtoes 2.1206
lfemur -10.1572 6.19127 -20.5732
ltibia 27.2433
lfoot -19.3565 -1.92513
ltoes 8.46827
76
root 50.4885 15.9937 19.0904 -177.071 -44.522 -179.051
lowerback -6.86609 -0.454541 1.68165
upperback 1.72572 -0.755221 -0.0725775
thorax 5.62836 -0.314502 -1.10813
lowerneck -4.5482 -2.6223 0.631789
upperneck 6.3884 -4.38353 8.0615
head 3.06104 -1.98672 2.35078
rclavicle 5.28969e-014 3.2054e-015
rhumerus -31.8367 -10.3212 -83.9497
rradius 30.2155
rwrist -2.50248
rhand -24.2924 -7.65455
rfingers 7.12502
rthumb 2.19499 -37.623
lclavicle 5.28969e-014 3.2054e-015
lhumerus -31.3182 9.37042 82.7748
lradius 24.8124
lwrist 21.9122
lhand -17.1276 8.10902
lfingers 7.12502
lthumb 9.11219 37.8922
rfemur -17.6526 3.20952 23.6634
rtibia 39.0333
rfoot -26.4265 -13.4815
rtoes 2.11539
lfemur -10.1347 6.20268 -20.6023
ltibia 27.2071
lfoot -19.36 -1.89503
ltoes 8.48316
77
root 50.4891 15.9936 19.089 -177.038 -44.482 -179.09
lowerback -6.87526 -0.450071 1.64625
upperback 1.69717 -0.744997 -0.0872233
thorax 5.60412 -0.31074 -1.1022
lowerneck -4.53275 -2.62709 0.67351
upperneck 6.40752 -4.3874 7.99251
head 3.06099 -1.98914 2.3199
rclavicle -6.10952e-014 7.35503e-015
rhumerus -31.8636 -10.3781 -83.9292
rradius 30.1881
rwrist -2.48637
rhand -24.3078 -7.65039
rfingers 7.12502
rthumb 2.18011 -37.619
lclavicle -6.10952e-014 7.35503e-015
lhumerus -31.3706 9.45421 82.7226
lradius 24.7424
lwrist 21.8123
lhand -17.096 8.15273
lfingers 7.12502
lthumb 9.14275 37.9345
rfemur -17.6697 3.21998 23.6374
rtibia 39.0481
rfoot -26.4228 -13.4653
rtoes 2.11064
lfemur -10.1162 6.21315 -20.6278
ltibia 27.1737
lfoot -19.3601 -1.87484
ltoes 8.4993
78
root 50.4903 15.9938 19.0876 -177.001 -44.4478 -179.128
lowerback -6.88552 -0.445269 1.60858
upperback 1.66819 -0.734099 -0.103072
thorax 5.58008 -0.306693 -1.09617
lowerneck -4.51684 -2.62845 0.709728
upperneck 6.41701 -4.38694 7.93858
head 3.05811 -1.98948 2.29527
rclavicle 2.57178e-015 -3.72721e-016
rhumerus -31.892 -10.4409 -83.9116
rradius 30.1637
rwrist -2.4724
rhand -24.3223 -7.6616
rfingers 7.12502
rthumb 2.16609 -37.6303
lclavicle 2.57178e-015 -3.72721e-016
lhumerus -31.4134 9.51754 82.6741
lradius 24.6712
lwrist 21.7343
lhand -17.0581 8.20333
lfingers 7.12502
lthumb 9.17923 37.9835
rfemur -17.6906 3.22964 23.612
rtibia 39.0617
rfoot -26.4198 -13.4496
rtoes 2.10381
lfemur -10.107 6.22108 -20.6526
ltibia 27.1426
lfoot -19.3559 -1.85837
ltoes 8.52263
79
root 50.4918 15.9941 19.0863 -176.956 -44.4122 -179.17
lowerback -6.89743 -0.442677 1.56622
upperback 1.63746 -0.725831 -0.11774
thorax 5.55513 -0.304134 -1.08659
lowerneck -4.49812 -2.62059 0.725318
upperneck 6.41524 -4.37383 7.90956
head 3.05185 -1.98377 2.28332
rclavicle -4.68076e-015 -1.02623e-014
rhumerus -31.9202 -10.4922 -83.8978
rradius 30.1409
rwrist -2.46305
rhand -24.3406 -7.6964
rfingers 7.12502
rthumb 2.14838 -37.6653
lclavicle -4.68076e-015 -1.02623e-014
lhumerus -31.454 9.57775 82.6272
lradius 24.6048
lwrist 21.6764
lhand -17.0245 8.25229
lfingers 7.12502
lthumb 9.21165 38.0311
rfemur -17.7182 3.23808 23.5834
rtibia 39.0755
rfoot -26.4187 -13.4243
rtoes 2.10994
lfemur -10.1069 6.2239 -20.6801
ltibia 27.1132
lfoot -19.3497 -1.83791
ltoes 8.55115
80
root 50.4932 15.9943 19.0849 -176.914 -44.384 -179.212
lowerback -6.91 -0.444051 1.52295
upperback 1.60992 -0.722961 -0.130419
thorax 5.53378 -0.304248 -1.07509
lowerneck -4.49682 -2.59142 0.699758
upperneck 6.40825 -4.33578 7.94633
head 3.04971 -1.96491 2.30201
rclavicle 1.15019e-013 -5.76476e-015
rhumerus -31.9477 -10.5262 -83.8896
rradius 30.1233
rwrist -2.46677
rhand -24.3624 -7.75367
rfingers 7.12502
rthumb 2.12732 -37.7228
lclavicle 1.15019e-013 -5.76476e-015
lhumerus -31.4834 9.63024 82.5856
lradius 24.5315
lwrist 21.6378
lhand -17.0033 8.27368
lfingers 7.12502
lthumb 9.23219 38.0516
rfemur -17.7424 3.23621 23.5547
rtibia 39.0908
rfoot -26.4202 -13.3932
rtoes 2.11826
lfemur -10.1045 6.21571 -20.7073
ltibia 27.084
lfoot -19.3437 -1.81692
ltoes 8.59091
81
root 50.4947 15.9944 19.0834 -176.872 -44.3564 -179.256
lowerback -6.92295 -0.448428 1.47473
upperback 1.5839 -0.723816 -0.140916
thorax 5.51422 -0.306372 -1.05896
lowerneck -4.50749 -2.54219 0.629645
upperneck 6.39722 -4.27424 8.04968
head 3.05117 -1.93377 2.35227
rclavicle -4.02725e-014 -5.26779e-015
rhumerus -31.979 -10.5433 -83.8829
rradius 30.11
rwrist -2.46892
rhand -24.3723 -7.81149
rfingers 7.12502
rthumb 2.1178 -37.7807
lclavicle -4.02725e-014 -5.26779e-015
lhumerus -31.5058 9.68067 82.5477
lradius 24.456
lwrist 21.6142
lhand -16.9899 8.29361
lfingers 7.12502
lthumb 9.2451 38.0709
rfemur -17.7662 3.23115 23.524
rtibia 39.1087
rfoot -26.419 -13.3629
rtoes 2.11247
lfemur -10.0977 6.20525 -20.7365
ltibia 27.0545
lfoot -19.3396 -1.79668
ltoes 8.62979
